<svg xmlns="http://www.w3.org/2000/svg" viewBox="0 0 520 96" width="520" height="96">
  <style>text{font-family:"Barlow Condensed","Arial Narrow",Arial,sans-serif;font-weight:700}</style>
  <rect x="0" y="16" width="64" height="64" rx="14" fill="#0f6f8c"/>
  <rect x="7" y="56" width="50" height="14" rx="3" fill="#e8f0f2"/>
  <rect x="24" y="56" width="18" height="14" fill="#5fd39a"/>
  <rect x="23" y="54" width="2.5" height="18" rx="1" fill="#0d171c"/><rect x="40.5" y="54" width="2.5" height="18" rx="1" fill="#0d171c"/>
  <g fill="#0f6f8c"><rect x="12" y="65" width="1.5" height="5"/><rect x="17.5" y="65" width="1.5" height="5"/><rect x="47" y="65" width="1.5" height="5"/><rect x="52.5" y="65" width="1.5" height="5"/></g>
  <path d="M15 40c5-8 14-10 22-6l9-6v18l-9-6c-8 4-17 2-22-6z" fill="#e8f0f2"/><circle cx="21" cy="39" r="1.8" fill="#0d171c"/>
  <text x="82" y="70" font-size="64" fill="#e8f0f2" letter-spacing="0.5">Slot<tspan fill="#4fb6d3">Gauge</tspan></text>
</svg>
